<svg xmlns="http://www.w3.org/2000/svg" viewBox="0 0 24 24"><path fill="#303C42" d="M21.023 5.178c-1.848-1.712-4.354-2.429-7.263-2.1-.017-.01-.028-.027-.046-.036-.218-.108-.724-.572-.724-2.542a.5.5 0 1 0-1 0c0 .173.008.334.015.495C7.203 1.028.99 8.002.008 13.369a.503.503 0 0 0 .492.59.491.491 0 0 0 .138-.02c1.495-.428 4.534-2.63 7.323-5.474a9.093 9.093 0 0 0-.462 2.843c0 3.624 1.328 12.115 13.628 12.69l.08.002a1.615 1.615 0 0 0 1.622-1.61c.016-1.58.327-3.556.586-4.934.336-1.785.504-2.956.56-3.916.204-3.388-.872-6.436-2.952-8.362zm-9.136-1.565c.162-.256.318-.512.463-.769.072.177.156.333.25.473a5.381 5.381 0 0 0-.713.296z"/><path fill="#9CCC65" d="M1.212 12.608C2.619 7.658 7.906 2.304 11.687 1.987c-2.47 4.636-7.883 9.233-10.475 10.62z"/><path d="M10.204 2.333c-2.237 3.45-5.806 6.7-8.299 8.424a12.84 12.84 0 0 0-.693 1.85c2.592-1.387 8.006-5.984 10.475-10.62-.474.04-.972.159-1.483.346z" opacity=".1"/><radialGradient id="a" cx="12.083" cy="7.083" r="17.737" gradientUnits="userSpaceOnUse"><stop offset="0" stop-color="#FF892E"/><stop offset="1" stop-color="#FFCA28"/></radialGradient><path fill="url(#a)" d="M22.978 13.481c-.055.915-.217 2.049-.545 3.79-.267 1.418-.587 3.456-.604 5.109a.622.622 0 0 1-.194.451.632.632 0 0 1-.461.168c-11.028-.515-12.675-7.546-12.675-11.69 0-3.862 2.684-6.9 5.093-7.212h.004c.512-.071 1.01-.106 1.494-.106 2.088 0 3.885.653 5.254 1.921 1.858 1.721 2.818 4.48 2.634 7.569z"/><path d="M9 9.699c0-.559.059-1.1.16-1.62a8.246 8.246 0 0 0-.66 3.23c0 4.144 1.646 11.175 12.674 11.69a.632.632 0 0 0 .46-.168.622.622 0 0 0 .195-.451c.002-.139.008-.283.013-.426C10.695 21.15 9 13.97 9 9.699z" opacity=".1"/><linearGradient id="b" x1="2.887" x2="25.552" y1="6.333" y2="16.902" gradientUnits="userSpaceOnUse"><stop offset="0" stop-color="#FFF" stop-opacity=".2"/><stop offset="1" stop-color="#FFF" stop-opacity="0"/></linearGradient><path fill="url(#b)" d="M21.023 5.178c-1.848-1.712-4.354-2.429-7.263-2.1-.017-.01-.028-.027-.046-.036-.218-.108-.724-.572-.724-2.542a.5.5 0 1 0-1 0c0 .173.008.334.015.495C7.203 1.028.99 8.002.008 13.369a.503.503 0 0 0 .492.59.491.491 0 0 0 .138-.02c1.495-.428 4.534-2.63 7.323-5.474a9.093 9.093 0 0 0-.462 2.843c0 3.624 1.328 12.115 13.628 12.69l.08.002a1.615 1.615 0 0 0 1.622-1.61c.016-1.58.327-3.556.586-4.934.336-1.785.504-2.956.56-3.916.204-3.388-.872-6.436-2.952-8.362zm-9.136-1.565c.162-.256.318-.512.463-.769.072.177.156.333.25.473a5.381 5.381 0 0 0-.713.296z"/></svg>